<?xml version='1.0' encoding='utf-8'?>
<svg xmlns="http://www.w3.org/2000/svg" width="295.24042mm" height="295.24042mm" viewBox="0 0 295.24042 295.24042" version="1.1" id="svg971"> <defs id="defs965"/> <metadata id="metadata968"> </metadata> <g id="layer1" transform="translate(-15.14425,1.8461906)"> <rect style="fill:#9ed7f1;fill-opacity:1;stroke:none;stroke-width:1.54749048;stroke-linecap:round;stroke-linejoin:round;stroke-miterlimit:4;stroke-dasharray:none;paint-order:fill markers stroke" id="rect1061" width="295.24042" height="295.24042" x="15.14425" y="-1.8461906"/> <ellipse style="fill:#7fcaec;fill-opacity:1;stroke:none;stroke-width:1.801;stroke-linecap:round;stroke-linejoin:round;stroke-miterlimit:4;stroke-dasharray:none;paint-order:fill markers stroke" id="path1625" cx="93.267761" cy="260.93741" rx="64.903931" ry="7.2115474"/> <rect ry="5.6044569" rx="5.339869" y="33.043236" x="61.701942" height="167.39056" width="226.41045" id="rect1042" style="fill:#42474c;fill-opacity:1;stroke:none;stroke-width:2.56030726;stroke-linecap:round;stroke-linejoin:round;stroke-miterlimit:4;stroke-dasharray:none;paint-order:fill markers stroke"/> <rect style="fill:#4a7718;fill-opacity:1;stroke:none;stroke-width:2.3865664;stroke-linecap:round;stroke-linejoin:round;stroke-miterlimit:4;stroke-dasharray:none;paint-order:fill markers stroke" id="rect1035" width="216.21178" height="152.30386" x="66.801277" y="38.036922" rx="5.0993342" ry="5.0993342"/> <path id="path1023" d="m 116.4665,247.51075 -0.36058,3.33534 c 0,0 -4.68751,2.79448 -10.3666,0.8113 -0.18029,-1.44231 -0.63101,-3.42548 -0.63101,-3.42548 z" style="fill:#000000;fill-opacity:1;stroke:none;stroke-width:1.801;stroke-linecap:round;stroke-linejoin:round;stroke-miterlimit:4;stroke-dasharray:none;paint-order:fill markers stroke"/> <path style="fill:#ffdc72;fill-opacity:1;stroke:none;stroke-width:1.801;stroke-linecap:round;stroke-linejoin:round;stroke-miterlimit:4;stroke-dasharray:none;paint-order:fill markers stroke" d="m 144.82109,139.9405 c 0,0 2.80464,-5.60927 4.5894,-7.39403 1.78477,-1.78477 3.31457,-5.86424 2.80464,-9.68874 -0.50994,-3.8245 2.31945,-1.80287 3.0596,-0.7649 1.30577,1.83117 0.25496,6.1192 0.25496,6.1192 0,0 16.29225,-2.74542 18.58695,-1.72555 2.2947,1.01987 -0.47635,3.23989 -8.43203,3.76529 1.27484,2.2947 -0.7649,3.0596 -0.7649,3.0596 0,0 0.53822,1.25937 0.0283,2.27923 -0.50993,1.01987 -1.51434,1.54527 -1.51434,1.54527 0,0 0.7649,1.27483 -0.25496,2.54966 -1.01987,1.27484 -7.64901,2.03974 -7.64901,2.03974 l -3.56953,5.86423 z" id="path1013"/> <path style="fill:#2d9d91;fill-opacity:1;stroke:none;stroke-width:1.801;stroke-linecap:round;stroke-linejoin:round;stroke-miterlimit:4;stroke-dasharray:none;paint-order:fill markers stroke" d="m 113.97012,126.1723 c 0,0 11.72847,8.28642 20.39733,19.24998 6.50166,-3.82449 10.96358,-7.77648 10.96358,-7.77648 0,0 2.80463,5.86424 9.1788,7.649 -4.5894,20.14238 -20.86883,23.85595 -20.86883,23.85595 -3.8158,1.14474 -19.64894,-10.19631 -19.16095,-11.36258 0.39366,-0.94083 -5.09933,-23.7119 -0.50993,-31.61587 z" id="path1011"/> <path style="fill:#000000;fill-opacity:1;stroke:none;stroke-width:1.801;stroke-linecap:round;stroke-linejoin:round;stroke-miterlimit:4;stroke-dasharray:none;paint-order:fill markers stroke" d="m 69.230858,247.51075 0.360577,3.33534 c 0,0 4.687507,2.79448 10.3666,0.8113 0.18029,-1.44231 0.63101,-3.42548 0.63101,-3.42548 z" id="path1021"/> <path style="fill:#42474c;fill-opacity:1;stroke:none;stroke-width:1.801;stroke-linecap:round;stroke-linejoin:round;stroke-miterlimit:4;stroke-dasharray:none;paint-order:fill markers stroke" d="m 61.658732,190.99025 c 0,0 0.721156,33.89427 6.490393,56.97122 6.60351,3.37268 13.235753,1.27109 13.235753,1.27109 0,0 8.759467,-20.74227 12.004663,-38.41056 2.88462,19.1106 11.538479,38.94236 11.538479,38.94236 0,0 8.65385,1.08173 12.25963,-1.44231 3.2452,-20.55291 3.2452,-56.61065 3.2452,-56.61065 z" id="path1005"/> <path style="fill:#2d9d91;fill-opacity:1;stroke:none;stroke-width:1.801;stroke-linecap:round;stroke-linejoin:round;stroke-miterlimit:4;stroke-dasharray:none;paint-order:fill markers stroke" d="m 71.135713,123.24018 c 0,0 -2.804101,1.42195 -9.65507,5.3883 -3.494857,29.68577 -3.188639,56.45068 -2.2872,65.82569 15.865406,11.53847 31.852342,8.07455 31.852342,8.07455 0,0 1.292947,-4.70032 2.374687,-6.5032 1.6226,4.86779 3.755133,7.04407 3.755133,7.04407 0,0 19.471175,-2.16347 24.699545,-8.65386 1.79008,-23.85997 -7.42497,-67.9326 -7.42497,-67.9326 0,0 -1.47482,-1.33485 -7.63821,-3.6898 -6.16891,-2.35706 -13.421196,-3.35101 -35.676261,0.44687 z" id="path1003"/> <path style="fill:#258278;fill-opacity:1;stroke:none;stroke-width:1.801;stroke-linecap:round;stroke-linejoin:round;stroke-miterlimit:4;stroke-dasharray:none;paint-order:fill markers stroke" d="m 73.940348,119.79813 -2.804635,3.44205 12.238402,20.65231 8.668869,-6.37417 6.629133,6.1192 c 0,0 8.158943,-13.64072 8.541393,-20.77979 -1.27483,-1.14735 -3.0596,-2.54967 -3.0596,-2.54967 z" id="path987"/> <path style="fill:#ffdc72;fill-opacity:1;stroke:none;stroke-width:1.801;stroke-linecap:round;stroke-linejoin:round;stroke-miterlimit:4;stroke-dasharray:none;paint-order:fill markers stroke" d="m 81.060541,93.699969 c 5.708653,-3.541725 11.985559,-3.238243 16.748762,0.336661 4.410127,3.309912 5.749407,12.47239 6.344607,26.27143 -3.15061,8.09657 -4.330797,9.27492 -12.110925,17.21026 -9.522117,-7.12903 -12.818188,-12.97926 -18.102637,-17.72019 -0.0013,-12.38009 2.253585,-23.078852 7.120193,-26.098161 z" id="path973"/> <path style="fill:#42474c;fill-opacity:1;stroke:none;stroke-width:1.801;stroke-linecap:round;stroke-linejoin:round;stroke-miterlimit:4;stroke-dasharray:none;paint-order:fill markers stroke" d="m 88.218482,101.18556 c -2.996668,0.39682 -4.398866,-2.29088 -7.521516,-0.89238 -1.020573,0.45707 -1.239147,1.11166 -1.784767,1.65728 2.981549,0.44791 7.730942,2.38585 9.306283,-0.7649 z" id="path975"/> <path id="path977" d="m 92.361693,101.18556 c 2.56564,0.39682 3.766152,-2.29088 6.439653,-0.89238 0.873779,0.45707 1.060914,1.11166 1.528054,1.65728 -2.552696,0.44791 -6.618956,2.38585 -7.967707,-0.7649 z" style="fill:#42474c;fill-opacity:1;stroke:none;stroke-width:1.6664499;stroke-linecap:round;stroke-linejoin:round;stroke-miterlimit:4;stroke-dasharray:none;paint-order:fill markers stroke"/> <path style="fill:#eea320;fill-opacity:1;stroke:none;stroke-width:1.801;stroke-linecap:round;stroke-linejoin:round;stroke-miterlimit:4;stroke-dasharray:none;paint-order:fill markers stroke" d="m 92.425434,102.58788 c 0,0 1.338575,5.73675 1.5298,7.45777 0.191225,1.72103 -0.701159,2.2947 -2.039734,2.48593 -1.338575,0.19122 -2.868374,-0.12749 -2.868374,-0.12749 0,0 0.509931,0.70116 2.804633,0.70116 2.2947,0 2.74089,-1.14735 2.804634,-2.6134 0.06374,-1.46606 -1.338576,-5.29056 -2.230959,-7.90397 z" id="path979"/> <path style="fill:#eea320;fill-opacity:1;stroke:none;stroke-width:1.801;stroke-linecap:round;stroke-linejoin:round;stroke-miterlimit:4;stroke-dasharray:none;paint-order:fill markers stroke" d="m 79.804582,104.62761 c 0,0 1.21109,-0.19122 2.868374,-0.57367 1.657284,-0.38245 3.378309,-0.95613 4.653142,0.3187 -2.485924,-0.0637 -6.055457,0.7649 -7.521516,0.25497 z" id="path981"/> <path style="fill:#eea320;fill-opacity:1;stroke:none;stroke-width:1.801;stroke-linecap:round;stroke-linejoin:round;stroke-miterlimit:4;stroke-dasharray:none;paint-order:fill markers stroke" d="m 93.82775,104.05394 c 0,0 0.446193,-0.7649 1.721027,-0.57368 1.274831,0.19123 3.951983,0.50993 3.951983,0.50993 0.04642,-0.053 -3.259217,0.37383 -5.67301,0.0637 z" id="path983"/> <path style="fill:#42474c;fill-opacity:1;stroke:none;stroke-width:1.801;stroke-linecap:round;stroke-linejoin:round;stroke-miterlimit:4;stroke-dasharray:none;paint-order:fill markers stroke" d="m 91.21434,113.29648 c 0,0 -2.422184,-1.40232 -5.673008,-0.50993 -3.250827,0.89238 -6.565392,2.61341 -7.521519,2.03973 -0.956125,-0.57367 -1.593541,-1.21109 -1.593541,-1.21109 0,0 -0.254968,3.44205 1.784766,5.92798 2.039733,2.48592 4.971851,2.6134 6.947844,1.97599 1.975993,-0.63742 5.226817,-2.03974 7.011585,-1.84851 4.143209,2.03973 6.18294,2.99586 9.306283,2.10347 5.29057,-1.01986 5.67301,-5.92797 5.67301,-5.92797 0,0 -2.2947,2.10347 -3.18708,1.21105 -0.89239,-0.89238 -6.69288,-6.43791 -12.74834,-3.76076 z" id="path985"/> <path style="fill:#ffdc72;fill-opacity:1;stroke:none;stroke-width:1.801;stroke-linecap:round;stroke-linejoin:round;stroke-miterlimit:4;stroke-dasharray:none;paint-order:fill markers stroke" d="m 75.852596,107.17728 c 0,0 -2.804634,-3.8245 -4.589399,-1.27484 -1.784768,2.54967 0.637416,8.28642 3.569533,5.99172 0.892384,-1.65728 1.019866,-4.71688 1.019866,-4.71688 z" id="path989"/> <path id="path991" d="m 102.01482,107.0498 c 0,0 2.80463,-3.8245 4.5894,-1.27484 1.78477,2.54967 -0.63742,8.28642 -3.56954,5.99172 -0.89238,-1.65728 -1.01986,-4.71688 -1.01986,-4.71688 z" style="fill:#ffdc72;fill-opacity:1;stroke:none;stroke-width:1.801;stroke-linecap:round;stroke-linejoin:round;stroke-miterlimit:4;stroke-dasharray:none;paint-order:fill markers stroke"/> <path style="fill:#42474c;fill-opacity:1;stroke:none;stroke-width:1.801;stroke-linecap:round;stroke-linejoin:round;stroke-miterlimit:4;stroke-dasharray:none;paint-order:fill markers stroke" d="m 77.89233,99.273311 c -0.431734,-4.13576 -2.467317,0.300098 -2.932116,0.764899 -0.445312,0.44531 -1.398362,0.12353 -1.784768,0.50994 -1.065135,1.06513 1.037569,2.14951 0.254966,2.93211 -0.253193,0.2532 -1.612328,0.72733 -1.274831,1.40232 0.317754,0.63551 1.468173,0.95824 2.039734,1.5298 0.510526,0.51053 0.209182,1.86646 0.764899,2.42218 0.193374,0.19337 1.360509,-0.0428 1.5298,-0.12748 1.770041,-0.88502 -1.203886,-3.25803 -0.127484,-4.33444 0.302413,-0.30241 0.9535,-0.1886 1.274834,-0.50993 0.07243,-0.0724 0.503044,-4.25863 0.254966,-4.589399 z" id="path993"/> <path style="fill:#42474c;fill-opacity:1;stroke:none;stroke-width:1.801;stroke-linecap:round;stroke-linejoin:round;stroke-miterlimit:4;stroke-dasharray:none;paint-order:fill markers stroke" d="m 101.60424,99.27331 c -0.93285,1.46853 0.0981,3.00084 0.7649,4.33444 0.39305,0.78611 -1.2502,2.82927 -0.25497,3.8245 1.75881,1.75881 1.10969,-1.36465 1.5298,-1.78477 0.43957,-0.43957 1.22657,-0.41339 1.5298,-1.01987 0.37963,-0.75926 -0.79761,-1.46774 -1.01987,-1.91225 -0.32561,-0.65123 0.97208,-1.19514 0.38246,-1.78476 -0.43859,-0.43859 -1.15036,0.12448 -1.52981,-0.25497 -0.74407,-0.744079 0.88225,-1.97346 -1.40231,-1.40232 z" id="path995"/> <path style="fill:#258278;fill-opacity:1;stroke:none;stroke-width:1.801;stroke-linecap:round;stroke-linejoin:round;stroke-miterlimit:4;stroke-dasharray:none;paint-order:fill markers stroke" d="m 91.53305,137.90077 c 0,0 0,39.7748 1.784766,58.13241 0.509934,-20.14237 -0.509932,-55.58274 -1.784766,-58.13241 z" id="path1007"/> <path style="fill:#ffdc72;fill-opacity:1;stroke:none;stroke-width:1.801;stroke-linecap:round;stroke-linejoin:round;stroke-miterlimit:4;stroke-dasharray:none;paint-order:fill markers stroke" d="m 58.51486,178.82292 c 0,0 2.549668,3.95199 3.951984,3.95199 1.402318,0 2.804633,0.12748 4.589401,1.40232 1.784768,1.27483 0.7649,2.93211 0.7649,2.93211 0,0 1.402318,0.7649 1.784768,2.2947 0.38245,1.5298 -0.38245,2.67716 -1.5298,2.67716 -0.892384,1.91224 -2.039733,2.16721 -3.187086,2.16721 -0.509931,1.78477 -1.912249,1.78477 -3.059599,1.65728 -1.784768,1.78477 -2.932118,1.01987 -3.951983,0.50994 -1.019869,-0.50994 -7.649004,-7.39404 -9.433769,-12.2384 4.716883,-1.14735 10.071184,-5.35431 10.071184,-5.35431 z" id="path1015"/> <path style="fill:#2d9d91;fill-opacity:1;stroke:none;stroke-width:1.801;stroke-linecap:round;stroke-linejoin:round;stroke-miterlimit:4;stroke-dasharray:none;paint-order:fill markers stroke" d="m 61.701943,128.467 c 0,0 -27.79137,24.98674 -29.576138,32.8907 -1.784766,7.90397 17.548959,27.59827 17.548959,27.59827 0,0 7.530578,-4.20319 10.335212,-9.55749 -3.824502,-7.74931 -6.212,-12.43151 -6.212,-12.43151 0,0 4.844367,-3.8245 8.158935,-10.45363 C 65.271479,149.8842 61.701943,128.467 61.701943,128.467 Z" id="path1009"/> <path style="fill:#42474c;fill-opacity:1;stroke:none;stroke-width:1.801;stroke-linecap:round;stroke-linejoin:round;stroke-miterlimit:4;stroke-dasharray:none;paint-order:fill markers stroke" d="m 68.713529,249.83116 c 0,0 4.844367,3.18708 11.983437,0.7649 0.892381,5.22681 1.019865,8.4139 1.019865,8.4139 0,0 -3.824501,1.27483 -8.03145,0.63741 -0.254969,-0.63741 -3.314568,0.50994 -6.246686,1.01987 -2.932118,0.50993 -11.473503,1.14735 -15.298002,-1.27483 0.637416,-6.50165 5.099333,-6.50165 8.541385,-5.99172 3.442049,0.50993 7.011586,-1.65728 8.031451,-3.56953 z" id="path1017"/> <path id="path1019" d="m 117.06714,249.83116 c 0,0 -4.84437,3.18708 -11.98344,0.7649 -0.89238,5.22681 -1.01986,8.4139 -1.01986,8.4139 0,0 3.8245,1.27483 8.03145,0.63741 0.25497,-0.63741 3.31456,0.50994 6.24668,1.01987 2.93212,0.50993 11.47351,1.14735 15.298,-1.27483 -0.63741,-6.50165 -5.09933,-6.50165 -8.54138,-5.99172 -3.44205,0.50993 -7.01159,-1.65728 -8.03145,-3.56953 z" style="fill:#42474c;fill-opacity:1;stroke:none;stroke-width:1.801;stroke-linecap:round;stroke-linejoin:round;stroke-miterlimit:4;stroke-dasharray:none;paint-order:fill markers stroke"/> <g aria-label="E= mc2" style="font-style:normal;font-variant:normal;font-weight:normal;font-stretch:normal;font-size:47.66620255px;line-height:1.25;font-family:Yesteryear;-inkscape-font-specification:Yesteryear;letter-spacing:0px;word-spacing:0px;fill:#ffffff;fill-opacity:1;stroke:none;stroke-width:4.46870613" id="text1046"> <path d="m 175.89174,84.865785 q 0.88443,-0.721509 1.72232,-1.792137 0.83788,-1.070628 1.48956,-2.257628 0.65169,-1.187 1.04736,-2.420549 0.39566,-1.233549 0.39566,-2.304177 0,-0.861157 -0.41894,-1.44302 -0.39566,-0.605137 -1.46629,-0.605137 -0.90771,0 -2.00161,0.418941 -1.0939,0.418941 -2.21108,1.163726 -1.11718,0.72151 -2.1878,1.745588 -1.04736,1.000804 -1.86196,2.187805 -0.81461,1.187 -1.32665,2.490372 -0.48877,1.303373 -0.48877,2.63002 0,1.140452 0.2793,1.978334 0.27929,0.814608 0.81461,1.466294 0.53531,0.628412 1.28009,1.163726 0.76806,0.535314 1.74559,1.117177 -2.93259,1.233549 -5.39968,3.048961 -2.44383,1.792137 -4.21269,3.886843 -1.76886,2.094707 -2.76967,4.329056 -0.97753,2.21108 -0.97753,4.25924 0,0.72151 0.34912,1.2801 0.34912,0.53531 1.0939,0.53531 0.97753,0 2.18781,-0.53531 1.21027,-0.53532 2.51364,-1.39647 1.30338,-0.86116 2.60675,-1.93179 1.32665,-1.07063 2.4671,-2.14125 1.16372,-1.0939 2.07143,-2.071434 0.90771,-0.97753 1.44302,-1.652491 1.39647,1.117177 2.42055,2.001605 1.02408,0.86116 1.90851,1.58267 -0.39567,0.53531 -1.32665,1.48957 -0.9077,0.95425 -2.1878,2.04816 -1.25683,1.0939 -2.76967,2.23435 -1.48957,1.11718 -3.04896,2.02488 -1.53612,0.90771 -3.04896,1.48957 -1.51285,0.58186 -2.76967,0.58186 -1.0939,0 -2.1878,-0.37239 -1.07063,-0.37239 -2.04816,-1.0008 -0.97753,-0.60514 -1.81541,-1.41975 -0.81461,-0.79133 -1.41975,-1.65249 -0.62841,-0.86116 -1.0008,-1.72231 -0.37239,-0.86116 -0.39567,-1.60594 v -0.55859 q 0,-2.44383 0.86116,-4.608355 0.86116,-2.16453 2.35072,-3.979942 1.51285,-1.838687 3.51446,-3.304981 2.02488,-1.489569 4.32906,-2.583471 -0.41895,-0.418941 -0.83789,-0.907706 -0.39566,-0.488765 -0.72151,-1.093902 -0.30257,-0.628412 -0.48876,-1.396471 -0.1862,-0.768059 -0.1862,-1.722314 0,-1.629216 0.58186,-3.188608 0.58187,-1.559392 1.5594,-2.932589 0.97753,-1.373196 2.2809,-2.513647 1.32665,-1.140451 2.79294,-1.955059 1.4663,-0.837883 3.00241,-1.303373 1.53612,-0.46549 2.97914,-0.46549 2.39728,0 3.35153,0.488765 0.79133,0.418941 1.69904,1.210274 0.93098,0.791334 1.72231,1.745589 0.79134,0.93098 1.32665,1.90851 0.53531,0.954255 0.53531,1.722314 0,1.326647 -0.44221,2.769667 -0.44222,1.44302 -1.16373,2.816216 -0.72151,1.349922 -1.65249,2.560196 -0.93098,1.187001 -1.88523,2.001608 z" style="font-style:normal;font-variant:normal;font-weight:normal;font-stretch:normal;font-family:Yesteryear;-inkscape-font-specification:Yesteryear;fill:#ffffff;stroke-width:4.46870613" id="path1050"/> <path d="m 199.1301,101.5497 q -0.1862,0.53532 -0.39567,1.0939 -0.18619,0.55859 -0.37239,1.07063 -0.1862,0.48877 -0.37239,0.90771 -0.16292,0.41894 -0.2793,0.69823 -0.32584,0 -1.39647,0.0233 -1.04735,0 -2.44382,0 -1.39647,0 -2.95587,0.0233 -1.53611,0.0233 -2.88603,0.0233 -1.34993,0 -2.28091,0.0233 -0.93098,0 -1.0939,0 0.11637,-0.25602 0.32584,-0.67496 0.1862,-0.41894 0.39567,-0.86116 0.20947,-0.46549 0.37239,-0.86115 0.1862,-0.41895 0.2793,-0.65169 0.16292,0 0.79133,-0.0233 0.62841,-0.0465 1.53612,-0.0931 0.93098,-0.0698 2.04816,-0.13965 1.11717,-0.0698 2.25762,-0.13965 1.16373,-0.0931 2.25763,-0.16292 1.11718,-0.0698 2.00161,-0.11637 0.90771,-0.0698 1.48957,-0.0931 0.60514,-0.0465 0.72151,-0.0465 z m 1.95506,-6.14447 q -0.1862,0.535314 -0.39567,1.093902 -0.1862,0.535314 -0.37239,1.047353 -0.1862,0.512039 -0.37239,0.930981 -0.16293,0.418941 -0.2793,0.67496 -0.34912,0 -1.39647,0.02327 -1.04735,0 -2.44382,0.02327 -1.39647,0 -2.95587,0.02327 -1.53611,0 -2.88604,0.02327 -1.34992,0 -2.2809,0.02327 -0.93098,0 -1.0939,0 0.11637,-0.25602 0.30257,-0.674961 0.20947,-0.418941 0.41894,-0.861157 0.20947,-0.46549 0.37239,-0.861157 0.1862,-0.418941 0.2793,-0.651686 0.16292,0 0.79133,-0.02327 0.62841,-0.04655 1.53612,-0.0931 0.93098,-0.06982 2.04815,-0.139647 1.11718,-0.06982 2.25763,-0.139647 1.16373,-0.0931 2.25763,-0.162922 1.11718,-0.06982 2.00161,-0.116372 0.9077,-0.06982 1.48957,-0.0931 0.60513,-0.04655 0.72151,-0.04655 z" style="font-style:normal;font-variant:normal;font-weight:normal;font-stretch:normal;font-family:Yesteryear;-inkscape-font-specification:Yesteryear;fill:#ffffff;stroke-width:4.46870613" id="path1052"/> <path d="m 215.1093,96.270297 q -0.2793,0.72151 -0.55859,1.489569 -0.2793,0.768059 -0.53532,1.559392 1.4663,-1.745588 2.42055,-2.792942 0.97753,-1.047353 1.60594,-1.629215 0.65169,-0.581863 1.07063,-0.814608 0.41894,-0.232746 0.76806,-0.349118 0.20947,0 0.69824,0.232745 0.51204,0.232745 1.07062,0.581863 0.58187,0.325843 1.09391,0.698235 0.51203,0.349118 0.72151,0.581863 0.18619,0.186196 0.0465,0.535314 -0.27929,0.744784 -0.55858,1.512843 -0.25602,0.744785 -0.51204,1.536118 1.55939,-1.792137 2.60674,-2.862765 1.04736,-1.093902 1.69904,-1.675765 0.67496,-0.581863 1.04735,-0.768059 0.3724,-0.186196 0.58187,-0.186196 0.30257,0 0.9077,0.302569 0.60514,0.302568 1.21028,0.744784 0.62841,0.442216 1.07063,0.907706 0.46549,0.46549 0.46549,0.814608 0,0.06982 -0.0233,0.186196 -0.0233,0.0931 -0.0698,0.25602 -0.1862,0.581863 -0.48877,1.373196 -0.27929,0.791334 -0.60513,1.65249 -0.32585,0.83788 -0.65169,1.69904 -0.32584,0.83788 -0.58186,1.58267 -0.25602,0.74478 -0.41894,1.30337 -0.16293,0.55859 -0.16293,0.81461 0,0.13964 0.13965,0.13964 0.25602,0 0.76806,-0.30256 0.51204,-0.30257 1.16373,-0.79134 0.67496,-0.48876 1.39647,-1.07063 0.72151,-0.58186 1.37319,-1.14045 0.67496,-0.58186 1.21028,-1.04735 0.53531,-0.46549 0.81461,-0.69823 0.20947,0.20947 0.48876,0.53531 0.30257,0.32584 0.55859,0.60514 -0.51204,0.51204 -1.2801,1.25682 -0.76806,0.72151 -1.67576,1.48957 -0.88444,0.76806 -1.86197,1.53612 -0.95425,0.76806 -1.86196,1.37319 -0.9077,0.60514 -1.69904,0.97753 -0.79133,0.37239 -1.34992,0.37239 -0.34912,0 -0.88443,-0.25601 -0.53531,-0.23275 -1.02408,-0.60514 -0.48876,-0.34912 -0.83788,-0.79134 -0.34912,-0.44221 -0.34912,-0.86115 0.20947,-0.95426 0.55859,-2.16453 0.34912,-1.21028 0.76806,-2.4671 0.41894,-1.2801 0.86116,-2.513648 0.46549,-1.233549 0.88443,-2.280902 -0.46549,0.558588 -1.23355,1.349921 -0.76806,0.791334 -1.74559,2.094709 -0.97753,1.2801 -2.09471,3.18861 -1.11717,1.90851 -2.23435,4.6549 -0.13965,0.46549 -0.67496,0.46549 -0.27929,0 -0.69824,-0.11637 -0.39566,-0.0931 -0.86115,-0.32585 -0.44222,-0.20947 -0.93098,-0.53531 -0.46549,-0.32584 -0.88443,-0.79133 0,-0.16293 0.16292,-0.97753 0.18619,-0.83789 0.51204,-2.11798 0.34911,-1.2801 0.8146,-2.86277 0.46549,-1.582666 1.04736,-3.258431 -0.55859,0.605137 -1.39647,1.559392 -0.83789,0.930979 -1.79214,2.280899 -0.95426,1.32665 -1.95506,3.09551 -1.0008,1.76887 -1.88524,4.00322 -0.13964,0.48876 -0.65168,0.48876 -0.39567,0 -0.88443,-0.23274 -0.51204,-0.20947 -1.02408,-0.58186 -0.53532,-0.34912 -1.04736,-0.79134 -0.53531,-0.44221 -0.95425,-0.88443 0,-0.13965 0.13965,-0.79133 0.11637,-0.65169 0.34911,-1.62922 0.23275,-1.0008 0.58187,-2.25763 0.32584,-1.28009 0.76806,-2.676565 0.44221,-1.39647 0.97753,-2.83949 0.53531,-1.466294 1.14045,-2.816216 0.97753,0.46549 2.16453,1.140451 1.21027,0.674961 2.21108,1.582667 z" style="font-style:normal;font-variant:normal;font-weight:normal;font-stretch:normal;font-family:Yesteryear;-inkscape-font-specification:Yesteryear;fill:#ffffff;stroke-width:4.46870613" id="path1054"/> <path d="m 237.82522,109.2342 q -0.41894,0 -0.95426,-0.27929 -0.53531,-0.25602 -1.0939,-0.72151 -0.55859,-0.44222 -1.07063,-1.04736 -0.53531,-0.62841 -0.88443,-1.30337 -0.13965,-0.25602 -0.1862,-0.58186 -0.0465,-0.32585 -0.0465,-0.83788 0,-1.32665 0.41894,-2.6533 0.39566,-1.34992 1.11717,-2.560196 0.72151,-1.210274 1.74559,-2.257627 1.00081,-1.070628 2.18781,-1.838687 1.187,-0.768059 2.53692,-1.210274 1.34992,-0.442216 2.74639,-0.442216 0.20947,0 0.55859,0.232745 0.37239,0.209471 0.79133,0.581863 0.41894,0.372392 0.83788,0.837882 0.44222,0.46549 0.79134,0.954255 0.34912,0.465491 0.55859,0.930981 0.23274,0.442216 0.23274,0.791333 -0.11637,0.442216 -0.72151,0.97753 -0.60514,0.512039 -1.44302,0.977529 -0.81461,0.442212 -1.72231,0.744782 -0.90771,0.30257 -1.58267,0.30257 -0.39567,0 -0.39567,-0.23274 0,-0.25602 0.34912,-0.744788 0.34912,-0.512039 0.76806,-1.093902 0.44222,-0.605138 0.79133,-1.187 0.34912,-0.605138 0.34912,-1.024079 0,-0.209471 -0.11637,-0.349118 -0.0931,-0.139647 -0.27929,-0.139647 -0.51204,0 -1.07063,0.46549 -0.55859,0.465491 -1.11718,1.23355 -0.55859,0.768059 -1.07063,1.768863 -0.51204,0.977531 -0.9077,2.024881 -0.37239,1.04735 -0.60514,2.09471 -0.23274,1.04735 -0.23274,1.90851 0,0.51204 0.30256,0.72151 0.30257,0.18619 0.93098,0.18619 1.5594,0 3.00242,-0.51204 1.46629,-0.53531 2.79294,-1.34992 1.34992,-0.83788 2.56019,-1.86196 1.21028,-1.02408 2.28091,-2.04816 0.25602,0.30257 0.62841,0.60514 0.37239,0.2793 0.55859,0.48877 -1.44302,1.51284 -3.07224,2.88604 -1.60594,1.34992 -3.39808,2.374 -1.79214,1.0008 -3.77047,1.58266 -1.95506,0.60514 -4.09631,0.60514 z" style="font-style:normal;font-variant:normal;font-weight:normal;font-stretch:normal;font-family:Yesteryear;-inkscape-font-specification:Yesteryear;fill:#ffffff;stroke-width:4.46870613" id="path1056"/> <path d="m 269.08075,72.505187 q 0.0746,0.119321 0.0895,0.417622 0.0298,0.298301 0.0298,0.536942 0,1.416931 -0.31322,2.744371 -0.31321,1.32744 -1.04405,2.62505 -0.73084,1.282695 -1.92404,2.56539 -1.19321,1.282695 -2.93827,2.610135 -1.74506,1.312525 -4.10164,2.714541 -2.34166,1.3871 -5.39925,2.908436 1.10371,-0.14915 2.282,-0.387791 1.17829,-0.238641 2.29692,-0.492197 1.13355,-0.268471 2.14777,-0.536942 1.02914,-0.283386 1.81964,-0.492197 0.80541,-0.223726 1.32744,-0.357962 0.52202,-0.134235 0.65626,-0.134235 0.0597,0 0.0597,0.05966 0,0.07457 -0.14915,0.328131 -0.13424,0.253556 -0.37288,0.626433 -0.23864,0.357961 -0.53694,0.790498 -0.2983,0.432537 -0.61152,0.879988 -0.31321,0.432537 -0.62643,0.835244 -0.2983,0.417621 -0.52203,0.730838 -0.53694,0.02983 -1.32744,0.04475 -0.77558,0.01491 -1.70031,0.02983 -0.92474,0.02983 -1.93896,0.04475 -0.99931,0.01492 -1.9837,0.02983 -0.96948,0.02983 -1.8793,0.04474 -0.8949,0.02983 -1.61083,0.04475 -0.13423,-0.149151 -0.2983,-0.417622 -0.17898,-0.253556 -0.34304,-0.566772 -0.16407,-0.298302 -0.31322,-0.611518 -0.14915,-0.328131 -0.20881,-0.596602 3.29623,-1.506421 5.80196,-3.102332 2.52064,-1.610827 4.37011,-3.221653 1.86438,-1.625741 3.11725,-3.221652 1.25286,-1.610827 2.01353,-3.132163 0.76067,-1.521336 1.07388,-2.923351 0.32813,-1.416931 0.32813,-2.639965 0,-0.119321 -0.0298,-0.268472 -0.0149,-0.164065 -0.0746,-0.298301 -0.0597,-0.134235 -0.16407,-0.223726 -0.0895,-0.08949 -0.23864,-0.08949 -0.47728,0 -1.11863,0.298301 -0.64134,0.283386 -1.35727,0.790498 -0.71592,0.492197 -1.47659,1.163375 -0.76067,0.656262 -1.4915,1.3871 -0.71593,0.730838 -1.35727,1.491506 -0.62644,0.745753 -1.10372,1.431846 -0.46237,0.686092 -0.73084,1.26778 -0.26847,0.581687 -0.25355,0.969479 0,0.11932 0,0.17898 0.0149,0.05966 0.0895,0.05966 0.14915,0 0.58169,-0.343046 0.43253,-0.357961 0.98439,-0.909818 0.56677,-0.551858 1.16337,-1.23795 0.59661,-0.701008 1.05897,-1.387101 0.1939,0.178981 0.4922,0.462367 0.2983,0.283386 0.58169,0.596602 0.2983,0.298302 0.55185,0.566773 0.25356,0.253556 0.35797,0.357961 -0.46237,0.626433 -1.23795,1.23795 -0.77559,0.596602 -1.65558,1.058969 -0.86507,0.462367 -1.73014,0.745753 -0.86508,0.283386 -1.49151,0.283386 -0.14915,0 -0.38779,-0.149151 -0.22373,-0.164065 -0.4922,-0.402706 -0.25355,-0.253556 -0.50711,-0.536942 -0.25355,-0.298301 -0.46237,-0.566772 -0.20881,-0.268471 -0.34304,-0.477282 -0.11932,-0.208811 -0.11932,-0.298301 0,-1.14846 0.49219,-2.296919 0.4922,-1.163375 1.32744,-2.222344 0.83525,-1.073884 1.93896,-1.998618 1.11863,-0.939649 2.35658,-1.610826 1.25287,-0.686093 2.55048,-1.073884 1.29761,-0.402707 2.50573,-0.402707 0.2983,0.02983 0.64134,0.268471 0.34305,0.223726 0.70101,0.581687 0.37288,0.343047 0.71592,0.760668 0.35797,0.417622 0.65627,0.820328 0.2983,0.402707 0.50711,0.730838 0.20881,0.328132 0.2983,0.507112 z" style="font-style:normal;font-variant:normal;font-weight:normal;font-stretch:normal;font-size:30.54603958px;font-family:Yesteryear;-inkscape-font-specification:Yesteryear;stroke-width:4.46870613" id="path1058"/> </g> </g> </svg>