<?xml version="1.0" encoding="UTF-8"?>
<svg viewBox="0 0 437.5 437.5" xmlns="http://www.w3.org/2000/svg" xmlns:xlink="http://www.w3.org/1999/xlink">
 <path d="m185.73 116.46-54.301 18.107v13.992l36.068 2.8806c7.5308 11.111 16.251 35.802 27.745 73.662-13.873 28.806-30.123 49.382-46.374 60.904l-17.043-21.81c-15.854 4.115-25.367 16.049-25.367 29.218 0 14.403 12.683 26.749 28.141 26.749 22.592 0 43.599-24.691 69.363-73.662 11.098 52.674 22.989 75.719 53.508 75.719 12.287 0 29.33-4.1152 52.319-11.522v-16.049c-7.9272 2.0576-15.062 2.8807-21.8 2.8807-26.556 0-32.105-27.16-48.752-86.83 13.872-30.041 28.934-48.559 43.996-55.555l15.458 21.81c16.251-4.9382 25.367-16.872 25.367-31.275 0-15.226-10.305-26.337-24.97-26.337-22.592 0-44.789 23.868-68.966 70.781-12.287-50.205-19.422-73.662-41.618-73.662h-2.7744z" fill="#004d00"/>
 <path transform="scale(30.069 34.804)" d="m4.4722 11.573c-1.3164-0.48828-2.2988-1.1875-2.9473-2.0977s-0.97266-2.041-0.97266-3.3926 0.32031-2.4766 0.96094-3.375 1.627-1.6055 2.959-2.1211v0.70312c-0.61719 0.375-1.0625 0.93164-1.3359 1.6699-0.26953 0.73438-0.4043 1.7754-0.4043 3.123 0 1.3438 0.13477 2.3848 0.4043 3.123 0.27344 0.73438 0.71875 1.2891 1.3359 1.6641v0.70313z" fill="#0f0" stroke="#000" stroke-width=".1932"/>
 <path d="m288.6 405.68c39.583-16.994 69.123-41.33 88.621-73.007s29.246-71.036 29.246-118.08-9.6314-86.194-28.894-117.46-48.921-55.877-88.973-73.823v24.472c18.558 13.052 31.948 32.425 40.17 58.118 8.1045 25.559 12.157 61.791 12.157 108.69 0 46.768-4.0523 83-12.157 108.69-8.222 25.559-21.612 44.865-40.17 57.916v24.472z" fill="#0f0" stroke="#000" stroke-width="6.2499"/>
</svg>
