<?xml version="1.0" encoding="UTF-8"?>
<svg viewBox="0 0 60 60" xmlns="http://www.w3.org/2000/svg">
 <path transform="matrix(2.9014 0 0 2.9014 -19.747 -15.471)" d="m10.71225,11.17254 1.59375-1.7168-.9668-1.04297-.47461-.50977c-.07813-.09375-.13867-.18555-.18164-.27539s-.06445-.19922-.06445-.31641c0-.28125.0918-.51367.27539-.69727s.39063-.27539.62109-.27539c.22266,0 .39844.03125.52734.09375s.26172.18359.39844.36328l.99609,1.24805 .99609-1.24805c.14453-.17969.2793-.30078.4043-.36328s.29883-.09375.52148-.09375c.23047,0 .4375.08984.62109.26953s.27539.41406.27539.70313c0,.11719-.02148.22266-.06445.31641s-.10547.18164-.1875.27539-.23438.25977-.46875.50977l-.9668,1.04297 1.59375,1.7168c.10156.10938.1875.22851.25781.35742s.11133.27344.11133.44531c0,.28516-.0918.51563-.27539.69141-.18359.17188-.41016.25781-.67969.25781-.17578,0-.32031-.03711-.43359-.11133s-.24219-.19727-.39844-.36914l-1.30664-1.54688-1.30664,1.54688c-.13672.15625-.26563.27539-.38672.35742s-.26953.12305-.44531.12305c-.26953,0-.49609-.08594-.67969-.25781-.18359-.17578-.27539-.40625-.27539-.69141 0-.16797.03125-.31055.09375-.42773 .06641-.11719.1582-.24219.27539-.375z" fill="#333"/>
 <path transform="matrix(2.9014 0 0 2.9014 2.9399 -32.87)" d="m11.08231,29.31221 .62695-1.42383-1.59375-3.84375c-.26563-.61719-.39844-1.00977-.39844-1.17773 0-.26172.08984-.47266.26953-.63281s.39844-.24023.64453-.24023c.46094,0 .7793.23633.95508.70898l1.10742,2.88867 1.04297-2.57813c.14844-.34375.29688-.59961.44531-.76758s.33984-.25195.57422-.25195c.28516,0 .51563.08594.69141.25781s.26953.39844.26953.69141c0,.19922-.07617.47461-.22851.82617l-2.77149,6.52734c-.13281.31641-.26367.54492-.39258.68555s-.33398.2168-.62695.2168c-.30078,0-.53125-.0918-.69141-.27539s-.23438-.37305-.23438-.56836c0-.15625.01953-.29688.05859-.42188s.12695-.33203.25195-.62109z" fill="#333"/>
 <path transform="matrix(1.0923 0 0 1.0923 -2.3231 -2.4316)" d="m13.496 35.527 32.39-19.074" fill="none" stroke="#333" stroke-linecap="round" stroke-linejoin="round" stroke-width="4.5775"/>
</svg>
