<?xml version="1.0" encoding="UTF-8"?>
<svg viewBox="0 0 1150 520" xmlns="http://www.w3.org/2000/svg">
 <defs>
  <linearGradient id="a" x2="0" y2="100%">
   <stop stop-color="#f00" offset="0"/>
   <stop stop-color="#ffb4b4" offset="1"/>
  </linearGradient>
  <linearGradient id="c" x2="0" y2="100%">
   <stop stop-color="#00f" offset="0"/>
   <stop stop-color="#00c9ff" offset="1"/>
  </linearGradient>
  <linearGradient id="b" x2="0" y2="100%">
   <stop stop-color="#50ff50" offset="0"/>
   <stop stop-color="#b4ffb4" offset="1"/>
  </linearGradient>
 </defs>
 <g transform="translate(203.81 -93.023)" stroke="#000">
  <g fill="url(#a)">
   <path d="m2.2936 190.78c1.8888-8.2419 2.8331-14.595 2.8331-19.06 0-3.4341-0.55798-5.9238-1.6741-7.4693s-2.8762-2.318-5.2801-2.3182c-2.6614 1.3e-4 -5.4733 1.0948-8.4352 3.284s-7.0186 6.1601-12.17 11.912l-7.3405-7.2118c7.8986-8.2419 14.466-14.101 19.704-17.579s11.161-5.2155 17.772-5.2156c5.4088 1.3e-4 9.6801 1.7816 12.814 5.3444s4.7004 8.2206 4.7006 13.973c-1.3e-4 4.5504-1.0303 9.6157-3.0909 15.196l1.5454 0.51503c8.4138-11.848 16.42-20.626 24.018-26.336s15.432-8.5637 23.503-8.5639c7.9844 1.3e-4 14.123 2.2966 18.416 6.8898s6.439 10.968 6.4391 19.124c-1.3e-4 5.4089-1.245 13.093-3.7346 23.052l-8.3708 33.741c-2.3182 9.3581-3.4772 15.969-3.4771 19.832-1.3e-4 3.4341 0.55785 5.924 1.6741 7.4693s2.876 2.3181 5.2801 2.3181c2.5754 0 5.3229-1.0517 8.242-3.1552s7.0399-6.117 12.363-12.041l7.3405 7.2118c-7.3836 7.8986-13.823 13.672-19.317 17.321s-11.762 5.4731-18.802 5.4731c-5.5807 0-10.045-1.9961-13.393-5.9883s-5.0226-9.079-5.0226-15.261c0-5.5806 1.4165-13.78 4.2499-24.597l5.6663-22.279c2.0604-8.0702 3.4126-14.037 4.0566-17.901s0.96586-6.997 0.96599-9.401c-1.3e-4 -5.9238-0.98752-10.195-2.962-12.814s-5.1943-3.9278-9.6586-3.9278c-3.606 0-7.491 1.4381-11.655 4.3141s-8.5855 7.2119-13.265 13.007c-4.679 5.7953-8.4352 11.419-11.268 16.87s-5.1513 12.17-6.9542 20.154l-12.234 55.762h-22.279l18.802-81.648z"/>
   <path d="m-129.3 152.31c10.653 1e-4 20.621 2.6867 29.902 8.0599s16.596 12.689 21.947 21.947 8.0248 19.213 8.025 29.867c-1.3e-4 10.607-2.6868 20.539-8.0599 29.797s-12.7 16.562-21.981 21.912-19.225 8.025-29.832 8.025-20.551-2.675-29.832-8.025-16.608-12.654-21.981-21.912-8.0599-19.19-8.0599-29.797c-1e-5 -10.653 2.675-20.621 8.025-29.902s12.665-16.596 21.947-21.947 19.248-8.0249 29.902-8.025zm0 110.61c13.863-1e-5 25.808-4.9894 35.833-14.968s15.038-21.9 15.038-35.763c-1.2e-4 -9.0251-2.2797-17.48-6.8387-25.366s-10.781-14.108-18.667-18.667-16.341-6.8386-25.366-6.8387c-13.957 1e-4 -25.924 5.0012-35.903 15.003s-14.968 21.958-14.968 35.868c-2e-5 13.863 5.0127 25.785 15.038 35.763s21.97 14.968 35.833 14.968zm6.1408-18.004h-8.1645v-51.988c-4.094 3.8148-9.5602 7.0946-16.399 9.8393v-7.8854c9.3508-4.559 15.771-10.118 19.26-16.678h5.3035v66.712z"/>
  </g>
  <g fill="url(#b)">
   <path d="m73.194 320.57 72.431 159.22 101.36-350.25h523.24v27.29h-508.06l-110.39 377.13h-19.903l-84.947-182.62-34.677 15.389-6.3607-15.389 67.301-30.778z"/>
   <path d="m866.71 99.584c10.653 1e-4 20.621 2.6867 29.902 8.0599s16.596 12.689 21.947 21.947 8.0248 19.213 8.025 29.867c-1.3e-4 10.607-2.6868 20.539-8.0599 29.797s-12.7 16.562-21.981 21.912-19.225 8.025-29.832 8.025-20.551-2.675-29.832-8.025-16.608-12.654-21.981-21.912-8.0599-19.19-8.0599-29.797c-1e-5 -10.653 2.675-20.621 8.025-29.902s12.665-16.596 21.947-21.947 19.248-8.0249 29.902-8.025zm0 110.61c13.863-1e-5 25.808-4.9894 35.833-14.968s15.038-21.9 15.038-35.763c-1.2e-4 -9.0251-2.2797-17.48-6.8387-25.366s-10.781-14.108-18.667-18.667-16.341-6.8386-25.366-6.8387c-13.957 1e-4 -25.924 5.0012-35.903 15.003s-14.968 21.958-14.968 35.868c-3e-5 13.863 5.0127 25.785 15.038 35.763s21.97 14.968 35.833 14.968zm21.563-18.004h-44.033c-5e-5 -3.7217 1.2793-7.4783 3.838-11.27s7.4899-8.6646 14.794-14.619c4.7916-3.8147 8.7925-7.5597 12.003-11.235s4.8149-7.4434 4.815-11.305c-9e-5 -3.3495-1.1748-6.1408-3.524-8.3739s-5.3152-3.3495-8.8972-3.3496c-3.6288 7e-5 -6.6992 1.1282-9.2113 3.3844s-3.7683 5.6641-3.7682 10.223l-8.4437-1.0467c0.55821-6.0012 2.7447-10.688 6.5595-14.061s8.8158-5.0592 15.003-5.0592c6.5595 8e-5 11.654 1.7912 15.282 5.3732s5.4429 7.932 5.443 13.049c-9e-5 4.3731-1.3376 8.4553-4.0125 12.247-2.6751 3.7916-6.7574 7.9901-12.247 12.596-7.1179 5.9548-11.34 9.5718-12.666 10.851s-2.5471 2.8727-3.6636 4.7801h32.728v7.8156z"/>
  </g>
  <g fill="url(#c)">
   <path d="m372.36 423.78c-2.0519-10.806-4.1722-21.203-6.3607-31.188s-4.4458-19.287-6.7712-27.905-4.2406-14.26-5.7452-16.928-3.112-4.514-4.8218-5.5401-3.8645-1.5387-6.4634-1.5389c-2.8726 2.6e-4 -5.4717 0.65003-7.7971 1.9493s-4.8562 3.5568-7.5918 6.7712-6.3609 8.2418-10.875 15.081l-13.337-8.823c8.6178-12.995 16.894-22.707 24.828-29.137s17.304-9.6436 28.111-9.6438c4.2404 2.6e-4 7.9679 0.47905 11.183 1.4364s6.0529 2.4282 8.5153 4.4116 4.6507 4.5484 6.566 7.6944c1.9149 3.1464 3.7615 7.4211 5.54 12.824s3.4538 12.106 5.027 20.108 2.9752 16.312 4.2064 24.93h2.0517c13.132-18.467 23.083-31.975 29.855-40.524s12.482-14.91 17.133-19.082 9.1306-7.1129 13.44-8.823 10.02-2.5647 17.133-2.5649c6.4289 2.7e-4 11.695 0.82101 15.799 2.4622l-8.2075 37.139h-14.363c-0.82088-5.7451-3.2148-8.6177-7.1815-8.6178-1.2314 1.3e-4 -2.5309 0.20538-3.8986 0.6155s-3.0437 1.2997-5.027 2.6675-4.8905 4.0354-8.7205 8.0022-8.1392 8.8232-12.927 14.568-9.7123 11.764-14.773 18.056l-13.953 17.441c2.4621 13.132 4.7875 24.486 6.9764 34.061s4.1378 17.544 5.8478 23.904 3.2144 11.388 4.5141 15.081 2.7015 6.4634 4.2064 8.3102 3.0433 3.1462 4.6167 3.8985 3.3854 1.1286 5.4374 1.1286c3.6932 0 7.2839-1.4364 10.772-4.309s8.5152-9.3702 15.081-19.493l13.337 8.823c-9.5757 14.226-18.228 24.246-25.956 30.06s-16.928 8.7204-27.598 8.7204c-5.8822 0-10.875-1.0602-14.979-3.1804s-7.6604-5.5058-10.67-10.157-5.6769-11.901-8.0022-21.75c-4.2406-17.509-6.8396-30.915-7.7971-40.217h-2.0519c-14.5 20.382-25.272 35.019-32.317 43.91s-12.858 15.457-17.441 19.698-9.0284 7.2157-13.337 8.9256-10.02 2.5648-17.133 2.5648c-6.4293 0-11.696-0.82074-15.799-2.4622l8.2075-37.139h14.363c0.82074 5.7452 3.2146 8.6178 7.1816 8.6178 1.915 0 3.9326-0.51294 6.0529-1.5389s5.1639-3.4881 9.1308-7.3867 9.4386-10.02 16.415-18.364 17.099-20.86 30.368-37.549z"/>
   <path d="m598.88 516.94c-3.967-23.938-9.3702-52.801-16.21-86.589-7.25-36.113-12.038-58.478-14.363-67.096-2.8728-10.396-5.8821-17.03-9.0282-19.903-1.9152-1.7782-4.309-2.6672-7.1816-2.6675-4.3773 2.6e-4 -8.481 1.7785-12.311 5.3348s-8.5494 9.7124-14.158 18.467l-13.337-8.823c9.4385-14.089 18.262-24.041 26.469-29.855s17.372-8.7203 27.495-8.7204c5.6084 1.3e-4 10.396 0.75246 14.363 2.257 2.7358 1.0946 5.4716 2.907 8.2075 5.4376s5.1638 6.0532 7.2842 10.567 3.9668 9.5756 5.54 15.184 3.3171 13.679 5.2323 24.212c3.2829 17.646 6.4633 36.216 9.5412 55.708s5.711 37.583 7.8997 54.272c13.269-19.151 24.52-37.891 33.753-56.221s15.868-34.266 19.903-47.808 6.0529-24.554 6.053-33.035c-1.3e-4 -6.429-1.3681-10.806-4.1037-13.132s-7.3869-3.6931-13.953-4.1037l2.0519-10.054h53.964l5.5401 10.259c-10.396 28.453-24.486 58.889-42.268 91.308-17.509 31.736-37.549 63.334-60.12 94.796-21.613 29.957-39.601 51.639-53.964 65.044-9.9858 9.1649-19.63 15.731-28.931 19.698-7.3867 3.0093-15.252 4.514-23.596 4.5141-2.8726-1.3e-4 -6.1899-0.23953-9.9515-0.71819s-6.6687-1.1286-8.7204-1.9493l8.823-39.806h16.21c0 8.7547 3.0094 13.132 9.0282 13.132 7.9339 0 17.167-4.9588 27.7-14.876s22.912-24.862 37.139-44.833z"/>
   <path d="m834.39 380.41c10.653 1e-4 20.621 2.6867 29.902 8.0599s16.596 12.689 21.947 21.947 8.0248 19.213 8.025 29.867c-1.3e-4 10.607-2.6868 20.539-8.0599 29.797s-12.7 16.562-21.981 21.912-19.225 8.025-29.832 8.025-20.551-2.675-29.832-8.025-16.608-12.654-21.981-21.912-8.0599-19.19-8.0599-29.797c-1e-5 -10.653 2.675-20.621 8.025-29.902s12.665-16.596 21.947-21.947 19.248-8.0249 29.902-8.025zm0 110.61c13.863 0 25.808-4.9894 35.833-14.968s15.038-21.9 15.038-35.763c-1.2e-4 -9.0251-2.2797-17.48-6.8387-25.366s-10.781-14.108-18.667-18.667-16.341-6.8386-25.366-6.8387c-13.957 9e-5 -25.924 5.0012-35.903 15.003s-14.968 21.958-14.968 35.868c-2e-5 13.863 5.0127 25.785 15.038 35.763s21.97 14.968 35.833 14.968zm9.8393-54.012c4.3264 0.977 7.4782 3.0472 9.4555 6.2106s2.9657 6.5828 2.9658 10.258c-9e-5 6.1874-2.2215 11.188-6.6642 15.003s-9.6417 5.7222-15.596 5.7222c-5.8618 1e-5 -10.7-1.7213-14.515-5.1639s-6.0246-7.9784-6.6293-13.608l8.1645-1.1165c0.74428 4.3731 2.1981 7.6528 4.3614 9.8393s5.0359 3.2798 8.6181 3.2798c3.7682 1e-5 6.9782-1.3375 9.63-4.0125 2.6516-2.675 3.9775-5.9431 3.9776-9.8044-9e-5 -3.7217-1.2096-6.8037-3.6287-9.2462s-5.5594-3.6635-9.4206-3.6636c-1.7679 4e-5 -3.6753 0.30243-5.7222 0.90717l1.0467-7.1876c5.1638 5e-5 8.9321-1.0583 11.305-3.1751s3.5588-4.78 3.5589-7.9901c-8e-5 -3.2564-1.1166-5.8035-3.3496-7.6412s-4.7918-2.7563-7.6761-2.7564c-3.3962 7e-5 -6.0828 1.0119-8.0599 3.0355s-3.2449 5.0593-3.8031 9.1066l-8.3041-1.3956c1.07-5.8151 3.4193-10.153 7.048-13.014s7.9551-4.2915 12.98-4.2916c5.5825 8e-5 10.211 1.6632 13.887 4.9894s5.5127 7.4319 5.5128 12.317c-9e-5 6.0944-3.0472 10.514-9.1415 13.259v0.13957z"/>
  </g>
 </g>
</svg>
