<?xml version="1.0" encoding="UTF-8"?>
<svg viewBox="0 0 60 60" xmlns="http://www.w3.org/2000/svg">
 <path transform="matrix(4.572 0 0 4.572 10.894 9.1966)" d="m1.40946,6.26903 1.59375-1.7168-.9668-1.04297-.47461-.50977c-.07813-.09375-.13867-.18555-.18164-.27539s-.06445-.19922-.06445-.31641c0-.28125.0918-.51367.27539-.69727s.39063-.27539.62109-.27539c.22266,0 .39844.03125.52734.09375s.26172.18359.39844.36328l.99609,1.24805 .99609-1.24805c.14453-.17969.2793-.30078.4043-.36328s.29883-.09375.52148-.09375c.23047,0 .4375.08984.62109.26953s.27539.41406.27539.70313c0,.11719-.02148.22266-.06445.31641s-.10547.18164-.1875.27539-.23438.25977-.46875.50977l-.9668,1.04297 1.59375,1.7168c.10156.10938.1875.22852.25781.35742s.11133.27344.11133.44531c0,.28516-.0918.51563-.27539.69141-.18359.17188-.41016.25781-.67969.25781-.17578,0-.32031-.03711-.43359-.11133s-.24219-.19727-.39844-.36914l-1.30664-1.54688-1.30664,1.54688c-.13672.15625-.26563.27539-.38672.35742s-.26953.12305-.44531.12305c-.26953,0-.49609-.08594-.67969-.25781-.18359-.17578-.27539-.40625-.27539-.69141 0-.16797.03125-.31055.09375-.42773 .06641-.11719.1582-.24219.27539-.375z" fill="#333"/>
 <path transform="matrix(1.2812 0 0 1.1445 -4.7207 -3.711)" d="m9.5371 11.235v37.249m34.91-37.429v37.969" fill="none" stroke="#333" stroke-linecap="round" stroke-linejoin="round" stroke-width="4.1291"/>
</svg>
