<?xml version="1.0" encoding="UTF-8"?>
<svg viewBox="0 0 1488.189 2104.7244" xmlns="http://www.w3.org/2000/svg" xmlns:xlink="http://www.w3.org/1999/xlink">
 <defs>
  <filter id="i">
   <feGaussianBlur stdDeviation="2.4014"/>
  </filter>
  <filter id="j">
   <feGaussianBlur stdDeviation="5.1377"/>
  </filter>
  <filter id="d">
   <feGaussianBlur stdDeviation=".5144"/>
  </filter>
  <filter id="g">
   <feGaussianBlur stdDeviation="12.7756"/>
  </filter>
  <filter id="h" x="-.01583" y="-.15943" width="1.0317" height="1.3189">
   <feGaussianBlur stdDeviation="2.2333"/>
  </filter>
  <filter id="a" x="-.16106" y="-.18948" width="1.3221" height="1.379">
   <feGaussianBlur stdDeviation="8.2982"/>
  </filter>
  <filter id="b" x="-.31835" y="-.44672" width="1.6367" height="1.8934">
   <feGaussianBlur stdDeviation="4.899"/>
  </filter>
  <linearGradient id="c">
   <stop stop-color="#04a" offset="0"/>
   <stop stop-color="#04a" stop-opacity="0" offset="1"/>
  </linearGradient>
  <linearGradient id="f" x1="10910" x2="10994" y1="-719.89" y2="-619.03" gradientUnits="userSpaceOnUse" xlink:href="#c"/>
  <linearGradient id="e" x1="10395" x2="10479" y1="-350.07" y2="-249.21" gradientUnits="userSpaceOnUse" xlink:href="#c"/>
 </defs>
 <g transform="translate(-14946 -1750.8)" fill="none" filter="url(#g)" stroke="#000" stroke-width="20">
  <path d="m15385 2096.8v1277.6"/>
  <path d="m16322 3062.2h-1277.6"/>
  <g transform="translate(1681.1 458.48)">
   <path d="m13761 2416.4h-119.46"/>
   <path d="m13761 2247.4h-119.46"/>
   <path d="m13761 2078.5h-119.46"/>
   <path d="m13761 1909.5h-119.46"/>
   <path d="m13761 1740.5h-119.46"/>
  </g>
  <g transform="matrix(0 1 -1 0 17940 -10642)">
   <path d="m13761 2416.4h-119.46"/>
   <path d="m13761 2247.4h-119.46"/>
   <path d="m13761 2078.5h-119.46"/>
   <path d="m13761 1909.5h-119.46"/>
   <path d="m13761 1740.5h-119.46"/>
  </g>
 </g>
 <g transform="translate(-13291 -1288.1)" fill="none" stroke="#0055d4">
  <path d="m14614 2413.5h-827.67"/>
  <path d="m14614 2245.4h-827.67"/>
  <path d="m14614 2077.3h-827.67"/>
  <path d="m14614 1909.2h-827.67"/>
  <path d="m14614 1741.1h-827.67"/>
  <g transform="matrix(0 -1 1 0 12123 16277)">
   <path d="m14614 2413.5h-827.67"/>
   <path d="m14614 2245.4h-827.67"/>
   <path d="m14614 2077.3h-827.67"/>
   <path d="m14614 1909.2h-827.67"/>
   <path d="m14614 1741.1h-827.67"/>
  </g>
 </g>
 <g transform="translate(-14946 -1750.8)" fill="none" stroke="#000" stroke-width="20">
  <path d="m15385 2096.8v1277.6"/>
  <path d="m16322 3062.2h-1277.6"/>
  <g transform="translate(1681.1 458.48)">
   <path d="m13761 2416.4h-119.46"/>
   <path d="m13761 2247.4h-119.46"/>
   <path d="m13761 2078.5h-119.46"/>
   <path d="m13761 1909.5h-119.46"/>
   <path d="m13761 1740.5h-119.46"/>
  </g>
  <g transform="matrix(0 1 -1 0 17940 -10642)">
   <path d="m13761 2416.4h-119.46"/>
   <path d="m13761 2247.4h-119.46"/>
   <path d="m13761 2078.5h-119.46"/>
   <path d="m13761 1909.5h-119.46"/>
   <path d="m13761 1740.5h-119.46"/>
  </g>
 </g>
 <g transform="matrix(.73966 0 0 .75611 -7072.6 1082.4)">
  <path d="m10585-611.83c338.6-31.219 338.6-33.62 338.6-33.62" fill="none" filter="url(#h)" stroke="#000" stroke-width="10"/>
  <path d="m10564-599.82c-124.87 278.57-127.28 280.97-127.28 280.97" fill="none" filter="url(#i)" opacity=".99" stroke="#000" stroke-width="10"/>
  <path d="m10566-613.88c-84.57 252.31 443.8 343.8 238.03 584.27 158.41 81.394 377.3 131.09 346.23 12.365-72.772-23.423-159.16-37.924 0-213.3-169.13 88.321-397.23-95.423-639.91 74.192 123.33-296.02 450.53-166.05 500.8-352.41-205.22 101.87-308.65-43.548-445.15-105.11z" fill="none" filter="url(#j)" stroke="#025" stroke-width="10"/>
  <path d="m10566-613.88c-84.57 252.31 443.8 343.8 238.03 584.27 158.41 81.394 377.3 131.09 346.23 12.365-72.772-23.423-159.16-37.924 0-213.3-169.13 88.321-397.23-95.423-639.91 74.192 123.33-296.02 450.53-166.05 500.8-352.41-205.22 101.87-308.65-43.548-445.15-105.11z" fill="none" stroke="#0055d4" stroke-width="10"/>
  <g transform="matrix(.55933 0 0 .61892 4777.7 -137.27)">
   <path d="m10310-41.976c0 29.024-27.681 52.553-61.827 52.553s-61.827-23.529-61.827-52.553 27.681-52.553 61.827-52.553 61.827 23.529 61.827 52.553z" fill="#d45500" filter="url(#a)"/>
   <path d="m10310-41.976c0 29.024-27.681 52.553-61.827 52.553s-61.827-23.529-61.827-52.553 27.681-52.553 61.827-52.553 61.827 23.529 61.827 52.553z" fill="#d45500"/>
   <path d="m10241-54.776c0 7.2681-8.268 13.16-18.467 13.16s-18.466-5.8919-18.466-13.16 8.268-13.16 18.466-13.16 18.467 5.8919 18.467 13.16z" fill="#fff" filter="url(#b)"/>
  </g>
  <g transform="matrix(.55933 0 0 .61892 4837.7 -581.53)">
   <path d="m10310-41.976c0 29.024-27.681 52.553-61.827 52.553s-61.827-23.529-61.827-52.553 27.681-52.553 61.827-52.553 61.827 23.529 61.827 52.553z" fill="#d45500" filter="url(#a)"/>
   <path d="m10310-41.976c0 29.024-27.681 52.553-61.827 52.553s-61.827-23.529-61.827-52.553 27.681-52.553 61.827-52.553 61.827 23.529 61.827 52.553z" fill="#d45500"/>
   <path d="m10241-54.776c0 7.2681-8.268 13.16-18.467 13.16s-18.466-5.8919-18.466-13.16 8.268-13.16 18.466-13.16 18.467 5.8919 18.467 13.16z" fill="#fff" filter="url(#b)"/>
  </g>
  <g transform="matrix(.55933 0 0 .61892 5269.9 -483.07)">
   <path d="m10310-41.976c0 29.024-27.681 52.553-61.827 52.553s-61.827-23.529-61.827-52.553 27.681-52.553 61.827-52.553 61.827 23.529 61.827 52.553z" fill="#d45500" filter="url(#a)"/>
   <path d="m10310-41.976c0 29.024-27.681 52.553-61.827 52.553s-61.827-23.529-61.827-52.553 27.681-52.553 61.827-52.553 61.827 23.529 61.827 52.553z" fill="#d45500"/>
   <path d="m10241-54.776c0 7.2681-8.268 13.16-18.467 13.16s-18.466-5.8919-18.466-13.16 8.268-13.16 18.466-13.16 18.467 5.8919 18.467 13.16z" fill="#fff" filter="url(#b)"/>
  </g>
  <g transform="matrix(.55933 0 0 .61892 5399.6 -197.3)">
   <path d="m10310-41.976c0 29.024-27.681 52.553-61.827 52.553s-61.827-23.529-61.827-52.553 27.681-52.553 61.827-52.553 61.827 23.529 61.827 52.553z" fill="#d45500" filter="url(#a)"/>
   <path d="m10310-41.976c0 29.024-27.681 52.553-61.827 52.553s-61.827-23.529-61.827-52.553 27.681-52.553 61.827-52.553 61.827 23.529 61.827 52.553z" fill="#d45500"/>
   <path d="m10241-54.776c0 7.2681-8.268 13.16-18.467 13.16s-18.466-5.8919-18.466-13.16 8.268-13.16 18.466-13.16 18.467 5.8919 18.467 13.16z" fill="#fff" filter="url(#b)"/>
  </g>
  <g transform="matrix(.55933 0 0 .61892 5416.4 9.2189)">
   <path d="m10310-41.976c0 29.024-27.681 52.553-61.827 52.553s-61.827-23.529-61.827-52.553 27.681-52.553 61.827-52.553 61.827 23.529 61.827 52.553z" fill="#d45500" filter="url(#a)"/>
   <path d="m10310-41.976c0 29.024-27.681 52.553-61.827 52.553s-61.827-23.529-61.827-52.553 27.681-52.553 61.827-52.553 61.827 23.529 61.827 52.553z" fill="#d45500"/>
   <path d="m10241-54.776c0 7.2681-8.268 13.16-18.467 13.16s-18.466-5.8919-18.466-13.16 8.268-13.16 18.466-13.16 18.467 5.8919 18.467 13.16z" fill="#fff" filter="url(#b)"/>
  </g>
  <g transform="matrix(.55933 0 0 .61892 5073 -7.5911)">
   <path d="m10310-41.976c0 29.024-27.681 52.553-61.827 52.553s-61.827-23.529-61.827-52.553 27.681-52.553 61.827-52.553 61.827 23.529 61.827 52.553z" fill="#d45500" filter="url(#a)"/>
   <path d="m10310-41.976c0 29.024-27.681 52.553-61.827 52.553s-61.827-23.529-61.827-52.553 27.681-52.553 61.827-52.553 61.827 23.529 61.827 52.553z" fill="#d45500"/>
   <path d="m10241-54.776c0 7.2681-8.268 13.16-18.467 13.16s-18.466-5.8919-18.466-13.16 8.268-13.16 18.466-13.16 18.467 5.8919 18.467 13.16z" fill="#fff" filter="url(#b)"/>
  </g>
  <path d="m10925-692.78h53.845v49.042h-53.845z" fill="url(#f)" filter="url(#d)" opacity=".99" stroke="#025" stroke-width="6.585"/>
  <path transform="matrix(1 0 0 -1 -23.612 -597.28)" d="m10410-322.96h53.845v49.042h-53.845z" fill="url(#e)" filter="url(#d)" opacity=".99" stroke="#025" stroke-width="6.585"/>
 </g>
</svg>
