<?xml version="1.0" encoding="UTF-8"?>
<svg viewBox="0 0 437.5 437.5" xmlns="http://www.w3.org/2000/svg" xmlns:xlink="http://www.w3.org/1999/xlink">
 <path d="m185.73 116.46-54.301 18.107v13.992l36.068 2.8806c7.5308 11.111 16.251 35.802 27.745 73.662-13.873 28.806-30.123 49.382-46.374 60.904l-17.043-21.81c-15.854 4.115-25.367 16.049-25.367 29.218 0 14.403 12.683 26.749 28.141 26.749 22.592 0 43.599-24.691 69.363-73.662 11.098 52.674 22.989 75.719 53.508 75.719 12.287 0 29.33-4.1152 52.319-11.522v-16.049c-7.9272 2.0576-15.062 2.8807-21.8 2.8807-26.556 0-32.105-27.16-48.752-86.83 13.872-30.041 28.934-48.559 43.996-55.555l15.458 21.81c16.251-4.9382 25.367-16.872 25.367-31.275 0-15.226-10.305-26.337-24.97-26.337-22.592 0-44.789 23.868-68.966 70.781-12.287-50.205-19.422-73.662-41.618-73.662h-2.7744z" fill="#004d00"/>
 <path transform="scale(27.211 33.774)" d="m5.19934,11.29342v.84375h-.375c-.97266,0-1.625-.14453-1.95703-.4336s-.49219-.86523-.49219-1.72851v-1.40039c0-.58984-.10547-.99805-.31641-1.22461s-.58398-.33984-1.13086-.33984h-.36328v-.83789h.36328c.55078,0 .92969-.11133 1.13672-.33398s.31055-.62695.31055-1.21289v-1.40625c0-.86328.16406-1.4375.49219-1.72266s.98438-.43359 1.95703-.43359h.375v.83789h-.41016c-.54688,0-.9043.08594-1.07227.25781-.16406.16797-.24609.5293-.24609,1.08399v1.45313c0,.61328-.08984,1.05859-.26953,1.33594s-.47852.46484-.9082.5625c.43359.10547.73828.29688.91406.57422s.26367.7207.26367,1.33008v1.45313c0,.55859.08203.92188.24609,1.08984 .16797.16797.52539.25196 1.07227.25196h.41016z" fill="#0f0" stroke="#000" stroke-width=".2649"/>
 <path transform="scale(-27.211 33.774)" d="m-10.5079,11.17561v.84375h-.375c-.97266,0-1.625-.14453-1.95703-.4336s-.49219-.86523-.49219-1.72851v-1.40039c0-.58984-.10547-.99805-.31641-1.22461s-.58398-.33984-1.13085-.33984h-.36329v-.83789h.36329c.55078,0 .92968-.11133 1.13671-.33398s.31055-.62695.31055-1.21289v-1.40625c0-.86328.16406-1.4375.49219-1.72266s.98437-.43359 1.95703-.43359h.375v.83789h-.41016c-.54687,0-.90429.08594-1.07226.25781-.16406.16797-.2461.5293-.2461,1.08398v1.45312c0,.61328-.08984,1.05859-.26953,1.33594s-.47851.46484-.9082.5625c.43359.10547.73828.29688.91406.57422s.26367.7207.26367,1.33008v1.45313c0,.55859.08204.92188.2461,1.08984 .16797.16797.52539.25196 1.07226.25196h.41016z" fill="#0f0" stroke="#000" stroke-width=".2649"/>
</svg>
